<!DOCTYPE svg PUBLIC "-//W3C//DTD SVG 20010904//EN" "http://www.w3.org/TR/2001/REC-SVG-20010904/DTD/svg10.dtd">
<svg version="1.0" xmlns="http://www.w3.org/2000/svg" width="500px" height="500px" viewBox="0 0 5000 5000" preserveAspectRatio="xMidYMid meet">
<g id="layer101" fill="#0a84e3" stroke="none">
 <path d="M1005 4750 c-93 -15 -232 -58 -322 -100 -120 -56 -212 -119 -310 -212 -190 -183 -302 -384 -353 -639 -20 -99 -20 -134 -20 -1444 l0 -1342 23 -34 c36 -53 82 -79 142 -79 66 0 112 29 142 90 l23 44 0 1317 c0 1094 2 1330 14 1391 50 260 221 484 456 599 111 55 208 79 332 86 355 19 664 -164 813 -482 85 -180 79 -65 85 -1460 7 -1361 3 -1281 67 -1459 96 -267 299 -506 544 -640 326 -179 737 -192 1064 -36 293 140 522 394 620 690 61 184 58 117 62 1390 l4 1164 177 -176 c97 -97 187 -181 199 -187 12 -6 44 -11 71 -11 116 0 200 129 148 228 -8 15 -165 176 -348 359 -368 366 -373 369 -460 344 -37 -11 -92 -62 -371 -339 -181 -180 -335 -339 -343 -354 -19 -36 -18 -102 2 -144 31 -65 105 -95 191 -79 32 6 66 35 221 188 l183 181 -3 -1164 -3 -1165 -28 -90 c-77 -244 -236 -431 -457 -534 -118 -55 -186 -71 -321 -78 -255 -12 -455 64 -635 242 -121 120 -180 219 -232 394 -15 51 -17 175 -23 1291 -6 1322 -4 1277 -55 1435 -109 338 -375 621 -699 744 -142 54 -237 72 -395 76 -80 2 -172 0 -205 -5z"/>
 </g>
<g id="layer102" fill="#6c5ce7" stroke="none">
 <path d="M1045 4145 l-90 -85 -123 0 c-123 0 -124 0 -153 -29 -29 -29 -29 -30 -29 -147 l0 -117 -81 -75 c-44 -42 -85 -86 -90 -99 -13 -36 5 -70 92 -164 l79 -87 0 -122 c0 -121 0 -122 29 -151 29 -29 31 -29 146 -29 l116 0 82 -85 c77 -79 85 -85 122 -85 36 1 49 9 130 85 l90 85 123 0 c123 0 124 0 153 29 29 29 29 30 29 148 l0 118 81 74 c44 40 85 84 90 97 13 37 -4 69 -91 164 l-80 88 0 122 c0 121 0 122 -29 151 -29 29 -31 29 -145 29 l-115 0 -83 85 c-78 79 -86 85 -123 85 -36 -1 -49 -9 -130 -85z"/>
 <path d="M2815 1965 c-53 -19 -120 -91 -135 -144 -7 -28 -10 -160 -8 -409 3 -401 2 -394 64 -456 62 -62 55 -61 456 -64 255 -2 381 1 410 9 56 15 132 89 147 144 15 55 15 725 0 780 -15 53 -91 129 -144 144 -64 17 -739 14 -790 -4z"/>
 </g>

</svg>